<svg width="116" height="115" viewBox="0 0 116 115" fill="none" xmlns="http://www.w3.org/2000/svg">
<g filter="url(#filter0_d_0_995)">
<path d="M13.696 20C13.4907 20 13.36 19.9067 13.304 19.72L10.476 11.992C10.4387 11.9173 10.392 11.88 10.336 11.88H8.572C8.47867 11.88 8.432 11.9267 8.432 12.02V19.664C8.432 19.7573 8.39467 19.8413 8.32 19.916C8.264 19.972 8.18933 20 8.096 20H4.82C4.72667 20 4.64267 19.972 4.568 19.916C4.512 19.8413 4.484 19.7573 4.484 19.664V0.735999C4.484 0.642666 4.512 0.567999 4.568 0.511999C4.64267 0.437332 4.72667 0.399999 4.82 0.399999H11.652C12.7533 0.399999 13.7333 0.651999 14.592 1.156C15.4507 1.64133 16.1133 2.332 16.58 3.228C17.0467 4.124 17.28 5.15067 17.28 6.308C17.28 7.50267 17.0187 8.53867 16.496 9.416C15.9733 10.2933 15.236 10.9467 14.284 11.376C14.1907 11.4133 14.1627 11.4787 14.2 11.572L17.392 19.608C17.4107 19.6453 17.42 19.692 17.42 19.748C17.42 19.916 17.3173 20 17.112 20H13.696ZM8.572 3.788C8.47867 3.788 8.432 3.83467 8.432 3.928V8.716C8.432 8.80933 8.47867 8.856 8.572 8.856H11.008C11.6987 8.856 12.2587 8.632 12.688 8.184C13.1173 7.71733 13.332 7.10133 13.332 6.336C13.332 5.552 13.1173 4.936 12.688 4.488C12.2587 4.02133 11.6987 3.788 11.008 3.788H8.572ZM25.8471 20.252C24.5591 20.252 23.4205 19.9907 22.4311 19.468C21.4605 18.9453 20.7045 18.208 20.1631 17.256C19.6218 16.304 19.3511 15.1933 19.3511 13.924V6.476C19.3511 5.22533 19.6218 4.124 20.1631 3.172C20.7045 2.22 21.4605 1.48267 22.4311 0.96C23.4205 0.437333 24.5591 0.176 25.8471 0.176C27.1351 0.176 28.2738 0.437333 29.2631 0.96C30.2525 1.48267 31.0178 2.22 31.5591 3.172C32.1005 4.124 32.3711 5.22533 32.3711 6.476V13.924C32.3711 15.1933 32.1005 16.304 31.5591 17.256C31.0178 18.208 30.2525 18.9453 29.2631 19.468C28.2738 19.9907 27.1351 20.252 25.8471 20.252ZM25.8471 16.864C26.6311 16.864 27.2565 16.612 27.7231 16.108C28.1898 15.5853 28.4231 14.9133 28.4231 14.092V6.364C28.4231 5.524 28.1898 4.852 27.7231 4.348C27.2565 3.82533 26.6311 3.564 25.8471 3.564C25.0818 3.564 24.4658 3.82533 23.9991 4.348C23.5325 4.852 23.2991 5.524 23.2991 6.364V14.092C23.2991 14.9133 23.5325 15.5853 23.9991 16.108C24.4658 16.612 25.0818 16.864 25.8471 16.864ZM41.0756 20.224C39.8063 20.224 38.6863 19.972 37.7156 19.468C36.745 18.964 35.989 18.2453 35.4476 17.312C34.925 16.3787 34.6636 15.296 34.6636 14.064V6.28C34.6636 5.06667 34.925 4.00267 35.4476 3.088C35.989 2.15467 36.745 1.436 37.7156 0.931998C38.6863 0.427999 39.8063 0.176 41.0756 0.176C42.345 0.176 43.465 0.427999 44.4356 0.931998C45.4063 1.41733 46.153 2.108 46.6756 3.004C47.217 3.9 47.4876 4.94533 47.4876 6.14V6.28C47.4876 6.37333 47.4503 6.45733 47.3756 6.532C47.3196 6.60667 47.245 6.644 47.1516 6.644L43.8756 6.784C43.6516 6.784 43.5396 6.68133 43.5396 6.476V6.112C43.5396 5.34667 43.3156 4.73067 42.8676 4.264C42.4196 3.79733 41.8223 3.564 41.0756 3.564C40.329 3.564 39.7316 3.79733 39.2836 4.264C38.8356 4.73067 38.6116 5.34667 38.6116 6.112V14.316C38.6116 15.0813 38.8356 15.6973 39.2836 16.164C39.7316 16.612 40.329 16.836 41.0756 16.836C41.8223 16.836 42.4196 16.612 42.8676 16.164C43.3156 15.6973 43.5396 15.0813 43.5396 14.316V13.952C43.5396 13.7467 43.6516 13.644 43.8756 13.644L47.1516 13.784C47.245 13.784 47.3196 13.8213 47.3756 13.896C47.4503 13.952 47.4876 14.0267 47.4876 14.12V14.204C47.4876 15.3987 47.217 16.4533 46.6756 17.368C46.153 18.2827 45.4063 18.992 44.4356 19.496C43.465 19.9813 42.345 20.224 41.0756 20.224ZM50.3473 20C50.254 20 50.17 19.972 50.0953 19.916C50.0393 19.8413 50.0113 19.7573 50.0113 19.664V0.735999C50.0113 0.642666 50.0393 0.567999 50.0953 0.511999C50.17 0.437332 50.254 0.399999 50.3473 0.399999H53.6233C53.7167 0.399999 53.7913 0.437332 53.8473 0.511999C53.922 0.567999 53.9593 0.642666 53.9593 0.735999V8.184C53.9593 8.24 53.978 8.27733 54.0153 8.296C54.0713 8.31467 54.1087 8.296 54.1273 8.24L59.1393 0.623999C59.2327 0.474665 59.3633 0.399999 59.5313 0.399999H63.1433C63.274 0.399999 63.358 0.437332 63.3953 0.511999C63.4513 0.586666 63.442 0.679999 63.3673 0.791999L58.1873 8.828C58.1687 8.884 58.1687 8.94933 58.1873 9.024L63.6753 19.608C63.7127 19.6827 63.7313 19.7387 63.7313 19.776C63.7313 19.9253 63.6287 20 63.4233 20H59.8393C59.6713 20 59.5407 19.916 59.4473 19.748L55.4713 12.076C55.4527 12.02 55.4247 11.992 55.3873 11.992C55.35 11.992 55.3127 12.02 55.2753 12.076L54.0153 13.896C53.978 13.9707 53.9593 14.0267 53.9593 14.064V19.664C53.9593 19.7573 53.922 19.8413 53.8473 19.916C53.7913 19.972 53.7167 20 53.6233 20H50.3473ZM11.512 22.372C12.632 22.372 13.6213 22.624 14.48 23.128C15.3573 23.632 16.0293 24.3413 16.496 25.256C16.9813 26.1707 17.224 27.216 17.224 28.392C17.224 29.5493 16.9813 30.576 16.496 31.472C16.0293 32.3493 15.3573 33.0307 14.48 33.516C13.6213 34.0013 12.632 34.244 11.512 34.244H8.488C8.39467 34.244 8.348 34.2907 8.348 34.384V41.664C8.348 41.7573 8.31067 41.8413 8.236 41.916C8.18 41.972 8.10533 42 8.012 42H4.736C4.64267 42 4.55867 41.972 4.484 41.916C4.428 41.8413 4.4 41.7573 4.4 41.664V22.708C4.4 22.6147 4.428 22.54 4.484 22.484C4.55867 22.4093 4.64267 22.372 4.736 22.372H11.512ZM10.868 31.108C11.596 31.108 12.1747 30.8747 12.604 30.408C13.052 29.9227 13.276 29.2787 13.276 28.476C13.276 27.6547 13.052 27.0013 12.604 26.516C12.1747 26.0307 11.596 25.788 10.868 25.788H8.488C8.39467 25.788 8.348 25.8347 8.348 25.928V30.968C8.348 31.0613 8.39467 31.108 8.488 31.108H10.868ZM28.4612 42C28.2559 42 28.1252 41.9067 28.0692 41.72L27.4252 38.976C27.4065 38.9013 27.3599 38.864 27.2852 38.864H22.0492C21.9745 38.864 21.9279 38.9013 21.9092 38.976L21.2652 41.72C21.2092 41.9067 21.0879 42 20.9012 42H17.5132C17.2705 42 17.1772 41.8787 17.2332 41.636L22.2732 22.68C22.3292 22.4933 22.4599 22.4 22.6652 22.4H26.7252C26.9305 22.4 27.0612 22.4933 27.1172 22.68L32.1572 41.636L32.1852 41.748C32.1852 41.916 32.0825 42 31.8772 42H28.4612ZM22.6652 35.644C22.6465 35.7 22.6559 35.7467 22.6932 35.784C22.7305 35.8027 22.7679 35.812 22.8052 35.812H26.5012C26.5385 35.812 26.5759 35.8027 26.6132 35.784C26.6505 35.7467 26.6599 35.7 26.6412 35.644L24.7092 27.524C24.6905 27.4493 24.6625 27.412 24.6252 27.412C24.5879 27.412 24.5599 27.4493 24.5412 27.524L22.6652 35.644ZM41.2893 22.372C42.4093 22.372 43.3987 22.624 44.2573 23.128C45.1347 23.632 45.8067 24.3413 46.2733 25.256C46.7587 26.1707 47.0013 27.216 47.0013 28.392C47.0013 29.5493 46.7587 30.576 46.2733 31.472C45.8067 32.3493 45.1347 33.0307 44.2573 33.516C43.3987 34.0013 42.4093 34.244 41.2893 34.244H38.2653C38.172 34.244 38.1253 34.2907 38.1253 34.384V41.664C38.1253 41.7573 38.088 41.8413 38.0133 41.916C37.9573 41.972 37.8827 42 37.7893 42H34.5133C34.42 42 34.336 41.972 34.2613 41.916C34.2053 41.8413 34.1773 41.7573 34.1773 41.664V22.708C34.1773 22.6147 34.2053 22.54 34.2613 22.484C34.336 22.4093 34.42 22.372 34.5133 22.372H41.2893ZM40.6453 31.108C41.3733 31.108 41.952 30.8747 42.3813 30.408C42.8293 29.9227 43.0533 29.2787 43.0533 28.476C43.0533 27.6547 42.8293 27.0013 42.3813 26.516C41.952 26.0307 41.3733 25.788 40.6453 25.788H38.2653C38.172 25.788 38.1253 25.8347 38.1253 25.928V30.968C38.1253 31.0613 38.172 31.108 38.2653 31.108H40.6453ZM61.0643 25.452C61.0643 25.5453 61.027 25.6293 60.9523 25.704C60.8963 25.76 60.8217 25.788 60.7283 25.788H53.2243C53.131 25.788 53.0843 25.8347 53.0843 25.928V30.296C53.0843 30.3893 53.131 30.436 53.2243 30.436H57.9003C57.9937 30.436 58.0683 30.4733 58.1243 30.548C58.199 30.604 58.2363 30.6787 58.2363 30.772V33.488C58.2363 33.5813 58.199 33.6653 58.1243 33.74C58.0683 33.796 57.9937 33.824 57.9003 33.824H53.2243C53.131 33.824 53.0843 33.8707 53.0843 33.964V38.472C53.0843 38.5653 53.131 38.612 53.2243 38.612H60.7283C60.8217 38.612 60.8963 38.6493 60.9523 38.724C61.027 38.78 61.0643 38.8547 61.0643 38.948V41.664C61.0643 41.7573 61.027 41.8413 60.9523 41.916C60.8963 41.972 60.8217 42 60.7283 42H49.4723C49.379 42 49.295 41.972 49.2203 41.916C49.1643 41.8413 49.1363 41.7573 49.1363 41.664V22.736C49.1363 22.6427 49.1643 22.568 49.2203 22.512C49.295 22.4373 49.379 22.4 49.4723 22.4H60.7283C60.8217 22.4 60.8963 22.4373 60.9523 22.512C61.027 22.568 61.0643 22.6427 61.0643 22.736V25.452ZM72.6491 42C72.4438 42 72.3131 41.9067 72.2571 41.72L69.4291 33.992C69.3918 33.9173 69.3451 33.88 69.2891 33.88H67.5251C67.4318 33.88 67.3851 33.9267 67.3851 34.02V41.664C67.3851 41.7573 67.3478 41.8413 67.2731 41.916C67.2171 41.972 67.1425 42 67.0491 42H63.7731C63.6798 42 63.5958 41.972 63.5211 41.916C63.4651 41.8413 63.4371 41.7573 63.4371 41.664V22.736C63.4371 22.6427 63.4651 22.568 63.5211 22.512C63.5958 22.4373 63.6798 22.4 63.7731 22.4H70.6051C71.7065 22.4 72.6865 22.652 73.5451 23.156C74.4038 23.6413 75.0665 24.332 75.5331 25.228C75.9998 26.124 76.2331 27.1507 76.2331 28.308C76.2331 29.5027 75.9718 30.5387 75.4491 31.416C74.9265 32.2933 74.1891 32.9467 73.2371 33.376C73.1438 33.4133 73.1158 33.4787 73.1531 33.572L76.3451 41.608C76.3638 41.6453 76.3731 41.692 76.3731 41.748C76.3731 41.916 76.2705 42 76.0651 42H72.6491ZM67.5251 25.788C67.4318 25.788 67.3851 25.8347 67.3851 25.928V30.716C67.3851 30.8093 67.4318 30.856 67.5251 30.856H69.9611C70.6518 30.856 71.2118 30.632 71.6411 30.184C72.0705 29.7173 72.2851 29.1013 72.2851 28.336C72.2851 27.552 72.0705 26.936 71.6411 26.488C71.2118 26.0213 70.6518 25.788 69.9611 25.788H67.5251ZM10.364 64.224C9.076 64.224 7.94667 64 6.976 63.552C6.00533 63.0853 5.24933 62.4413 4.708 61.62C4.18533 60.78 3.924 59.8187 3.924 58.736V58.008C3.924 57.9147 3.952 57.84 4.008 57.784C4.08267 57.7093 4.16667 57.672 4.26 57.672H7.48C7.57333 57.672 7.648 57.7093 7.704 57.784C7.77867 57.84 7.816 57.9147 7.816 58.008V58.54C7.816 59.1933 8.05867 59.744 8.544 60.192C9.02933 60.6213 9.68267 60.836 10.504 60.836C11.232 60.836 11.7827 60.6493 12.156 60.276C12.548 59.9027 12.744 59.4267 12.744 58.848C12.744 58.4187 12.6227 58.0547 12.38 57.756C12.1373 57.4387 11.792 57.1493 11.344 56.888C10.9147 56.608 10.2427 56.2347 9.328 55.768C8.208 55.208 7.29333 54.6853 6.584 54.2C5.87467 53.7147 5.268 53.0893 4.764 52.324C4.26 51.5587 4.008 50.6347 4.008 49.552C4.008 48.4693 4.26 47.5267 4.764 46.724C5.28667 45.9027 6.01467 45.2773 6.948 44.848C7.88133 44.4 8.94533 44.176 10.14 44.176C11.3907 44.176 12.5013 44.4187 13.472 44.904C14.4427 45.3707 15.1987 46.0333 15.74 46.892C16.2813 47.7507 16.552 48.74 16.552 49.86V50.42C16.552 50.5133 16.5147 50.5973 16.44 50.672C16.384 50.728 16.3093 50.756 16.216 50.756H12.996C12.9027 50.756 12.8187 50.728 12.744 50.672C12.688 50.5973 12.66 50.5133 12.66 50.42V49.916C12.66 49.244 12.4267 48.684 11.96 48.236C11.4933 47.788 10.8587 47.564 10.056 47.564C9.384 47.564 8.852 47.7413 8.46 48.096C8.08667 48.432 7.9 48.908 7.9 49.524C7.9 49.9533 8.012 50.3267 8.236 50.644C8.46 50.9613 8.80533 51.2693 9.272 51.568C9.73867 51.848 10.448 52.2213 11.4 52.688L11.988 53.024C13.0707 53.6213 13.9107 54.144 14.508 54.592C15.124 55.0213 15.6373 55.572 16.048 56.244C16.4587 56.916 16.664 57.728 16.664 58.68C16.664 60.3787 16.0853 61.732 14.928 62.74C13.7893 63.7293 12.268 64.224 10.364 64.224ZM25.1069 64.224C23.8375 64.224 22.7175 63.972 21.7469 63.468C20.7762 62.964 20.0202 62.2453 19.4789 61.312C18.9562 60.3787 18.6949 59.296 18.6949 58.064V50.28C18.6949 49.0667 18.9562 48.0027 19.4789 47.088C20.0202 46.1547 20.7762 45.436 21.7469 44.932C22.7175 44.428 23.8375 44.176 25.1069 44.176C26.3762 44.176 27.4962 44.428 28.4669 44.932C29.4375 45.4173 30.1842 46.108 30.7069 47.004C31.2482 47.9 31.5189 48.9453 31.5189 50.14V50.28C31.5189 50.3733 31.4815 50.4573 31.4069 50.532C31.3509 50.6067 31.2762 50.644 31.1829 50.644L27.9069 50.784C27.6829 50.784 27.5709 50.6813 27.5709 50.476V50.112C27.5709 49.3467 27.3469 48.7307 26.8989 48.264C26.4509 47.7973 25.8535 47.564 25.1069 47.564C24.3602 47.564 23.7629 47.7973 23.3149 48.264C22.8669 48.7307 22.6429 49.3467 22.6429 50.112V58.316C22.6429 59.0813 22.8669 59.6973 23.3149 60.164C23.7629 60.612 24.3602 60.836 25.1069 60.836C25.8535 60.836 26.4509 60.612 26.8989 60.164C27.3469 59.6973 27.5709 59.0813 27.5709 58.316V57.952C27.5709 57.7467 27.6829 57.644 27.9069 57.644L31.1829 57.784C31.2762 57.784 31.3509 57.8213 31.4069 57.896C31.4815 57.952 31.5189 58.0267 31.5189 58.12V58.204C31.5189 59.3987 31.2482 60.4533 30.7069 61.368C30.1842 62.2827 29.4375 62.992 28.4669 63.496C27.4962 63.9813 26.3762 64.224 25.1069 64.224ZM34.3786 64C34.2853 64 34.2013 63.972 34.1266 63.916C34.0706 63.8413 34.0426 63.7573 34.0426 63.664V44.736C34.0426 44.6427 34.0706 44.568 34.1266 44.512C34.2013 44.4373 34.2853 44.4 34.3786 44.4H37.6546C37.7479 44.4 37.8226 44.4373 37.8786 44.512C37.9533 44.568 37.9906 44.6427 37.9906 44.736V63.664C37.9906 63.7573 37.9533 63.8413 37.8786 63.916C37.8226 63.972 37.7479 64 37.6546 64H34.3786ZM46.8132 64.224C45.5252 64.224 44.3959 64 43.4252 63.552C42.4546 63.0853 41.6986 62.4413 41.1572 61.62C40.6346 60.78 40.3732 59.8187 40.3732 58.736V58.008C40.3732 57.9147 40.4012 57.84 40.4572 57.784C40.5319 57.7093 40.6159 57.672 40.7092 57.672H43.9292C44.0226 57.672 44.0972 57.7093 44.1532 57.784C44.2279 57.84 44.2652 57.9147 44.2652 58.008V58.54C44.2652 59.1933 44.5079 59.744 44.9932 60.192C45.4786 60.6213 46.1319 60.836 46.9532 60.836C47.6812 60.836 48.2319 60.6493 48.6052 60.276C48.9972 59.9027 49.1932 59.4267 49.1932 58.848C49.1932 58.4187 49.0719 58.0547 48.8292 57.756C48.5866 57.4387 48.2412 57.1493 47.7932 56.888C47.3639 56.608 46.6919 56.2347 45.7772 55.768C44.6572 55.208 43.7426 54.6853 43.0332 54.2C42.3239 53.7147 41.7172 53.0893 41.2132 52.324C40.7092 51.5587 40.4572 50.6347 40.4572 49.552C40.4572 48.4693 40.7092 47.5267 41.2132 46.724C41.7359 45.9027 42.4639 45.2773 43.3972 44.848C44.3306 44.4 45.3946 44.176 46.5892 44.176C47.8399 44.176 48.9506 44.4187 49.9212 44.904C50.8919 45.3707 51.6479 46.0333 52.1892 46.892C52.7306 47.7507 53.0012 48.74 53.0012 49.86V50.42C53.0012 50.5133 52.9639 50.5973 52.8892 50.672C52.8332 50.728 52.7586 50.756 52.6652 50.756H49.4452C49.3519 50.756 49.2679 50.728 49.1932 50.672C49.1372 50.5973 49.1092 50.5133 49.1092 50.42V49.916C49.1092 49.244 48.8759 48.684 48.4092 48.236C47.9426 47.788 47.3079 47.564 46.5052 47.564C45.8332 47.564 45.3012 47.7413 44.9092 48.096C44.5359 48.432 44.3492 48.908 44.3492 49.524C44.3492 49.9533 44.4612 50.3267 44.6852 50.644C44.9092 50.9613 45.2546 51.2693 45.7212 51.568C46.1879 51.848 46.8972 52.2213 47.8492 52.688L48.4372 53.024C49.5199 53.6213 50.3599 54.144 50.9572 54.592C51.5732 55.0213 52.0866 55.572 52.4972 56.244C52.9079 56.916 53.1132 57.728 53.1132 58.68C53.1132 60.3787 52.5346 61.732 51.3772 62.74C50.2386 63.7293 48.7172 64.224 46.8132 64.224ZM61.3601 64.224C60.0721 64.224 58.9428 64 57.9721 63.552C57.0014 63.0853 56.2454 62.4413 55.7041 61.62C55.1814 60.78 54.9201 59.8187 54.9201 58.736V58.008C54.9201 57.9147 54.9481 57.84 55.0041 57.784C55.0788 57.7093 55.1628 57.672 55.2561 57.672H58.4761C58.5694 57.672 58.6441 57.7093 58.7001 57.784C58.7748 57.84 58.8121 57.9147 58.8121 58.008V58.54C58.8121 59.1933 59.0548 59.744 59.5401 60.192C60.0254 60.6213 60.6788 60.836 61.5001 60.836C62.2281 60.836 62.7788 60.6493 63.1521 60.276C63.5441 59.9027 63.7401 59.4267 63.7401 58.848C63.7401 58.4187 63.6188 58.0547 63.3761 57.756C63.1334 57.4387 62.7881 57.1493 62.3401 56.888C61.9108 56.608 61.2388 56.2347 60.3241 55.768C59.2041 55.208 58.2894 54.6853 57.5801 54.2C56.8708 53.7147 56.2641 53.0893 55.7601 52.324C55.2561 51.5587 55.0041 50.6347 55.0041 49.552C55.0041 48.4693 55.2561 47.5267 55.7601 46.724C56.2828 45.9027 57.0108 45.2773 57.9441 44.848C58.8774 44.4 59.9414 44.176 61.1361 44.176C62.3868 44.176 63.4974 44.4187 64.4681 44.904C65.4388 45.3707 66.1948 46.0333 66.7361 46.892C67.2774 47.7507 67.5481 48.74 67.5481 49.86V50.42C67.5481 50.5133 67.5108 50.5973 67.4361 50.672C67.3801 50.728 67.3054 50.756 67.2121 50.756H63.9921C63.8988 50.756 63.8148 50.728 63.7401 50.672C63.6841 50.5973 63.6561 50.5133 63.6561 50.42V49.916C63.6561 49.244 63.4228 48.684 62.9561 48.236C62.4894 47.788 61.8548 47.564 61.0521 47.564C60.3801 47.564 59.8481 47.7413 59.4561 48.096C59.0828 48.432 58.8961 48.908 58.8961 49.524C58.8961 49.9533 59.0081 50.3267 59.2321 50.644C59.4561 50.9613 59.8014 51.2693 60.2681 51.568C60.7348 51.848 61.4441 52.2213 62.3961 52.688L62.9841 53.024C64.0668 53.6213 64.9068 54.144 65.5041 54.592C66.1201 55.0213 66.6334 55.572 67.0441 56.244C67.4548 56.916 67.6601 57.728 67.6601 58.68C67.6601 60.3787 67.0814 61.732 65.9241 62.74C64.7854 63.7293 63.2641 64.224 61.3601 64.224ZM76.187 64.252C74.899 64.252 73.7603 63.9907 72.771 63.468C71.8003 62.9453 71.0443 62.208 70.503 61.256C69.9616 60.304 69.691 59.1933 69.691 57.924V50.476C69.691 49.2253 69.9616 48.124 70.503 47.172C71.0443 46.22 71.8003 45.4827 72.771 44.96C73.7603 44.4373 74.899 44.176 76.187 44.176C77.475 44.176 78.6136 44.4373 79.603 44.96C80.5923 45.4827 81.3576 46.22 81.899 47.172C82.4403 48.124 82.711 49.2253 82.711 50.476V57.924C82.711 59.1933 82.4403 60.304 81.899 61.256C81.3576 62.208 80.5923 62.9453 79.603 63.468C78.6136 63.9907 77.475 64.252 76.187 64.252ZM76.187 60.864C76.971 60.864 77.5963 60.612 78.063 60.108C78.5296 59.5853 78.763 58.9133 78.763 58.092V50.364C78.763 49.524 78.5296 48.852 78.063 48.348C77.5963 47.8253 76.971 47.564 76.187 47.564C75.4216 47.564 74.8056 47.8253 74.339 48.348C73.8723 48.852 73.639 49.524 73.639 50.364V58.092C73.639 58.9133 73.8723 59.5853 74.339 60.108C74.8056 60.612 75.4216 60.864 76.187 60.864ZM94.5515 64C94.3461 64 94.2155 63.9067 94.1595 63.72L91.3315 55.992C91.2941 55.9173 91.2475 55.88 91.1915 55.88H89.4275C89.3341 55.88 89.2875 55.9267 89.2875 56.02V63.664C89.2875 63.7573 89.2501 63.8413 89.1755 63.916C89.1195 63.972 89.0448 64 88.9515 64H85.6755C85.5821 64 85.4981 63.972 85.4235 63.916C85.3675 63.8413 85.3395 63.7573 85.3395 63.664V44.736C85.3395 44.6427 85.3675 44.568 85.4235 44.512C85.4981 44.4373 85.5821 44.4 85.6755 44.4H92.5075C93.6088 44.4 94.5888 44.652 95.4475 45.156C96.3061 45.6413 96.9688 46.332 97.4355 47.228C97.9021 48.124 98.1355 49.1507 98.1355 50.308C98.1355 51.5027 97.8741 52.5387 97.3515 53.416C96.8288 54.2933 96.0915 54.9467 95.1395 55.376C95.0461 55.4133 95.0181 55.4787 95.0555 55.572L98.2475 63.608C98.2661 63.6453 98.2755 63.692 98.2755 63.748C98.2755 63.916 98.1728 64 97.9675 64H94.5515ZM89.4275 47.788C89.3341 47.788 89.2875 47.8347 89.2875 47.928V52.716C89.2875 52.8093 89.3341 52.856 89.4275 52.856H91.8635C92.5541 52.856 93.1141 52.632 93.5435 52.184C93.9728 51.7173 94.1875 51.1013 94.1875 50.336C94.1875 49.552 93.9728 48.936 93.5435 48.488C93.1141 48.0213 92.5541 47.788 91.8635 47.788H89.4275ZM106.45 64.224C105.162 64.224 104.033 64 103.062 63.552C102.091 63.0853 101.335 62.4413 100.794 61.62C100.271 60.78 100.01 59.8187 100.01 58.736V58.008C100.01 57.9147 100.038 57.84 100.094 57.784C100.169 57.7093 100.253 57.672 100.346 57.672H103.566C103.659 57.672 103.734 57.7093 103.79 57.784C103.865 57.84 103.902 57.9147 103.902 58.008V58.54C103.902 59.1933 104.145 59.744 104.63 60.192C105.115 60.6213 105.769 60.836 106.59 60.836C107.318 60.836 107.869 60.6493 108.242 60.276C108.634 59.9027 108.83 59.4267 108.83 58.848C108.83 58.4187 108.709 58.0547 108.466 57.756C108.223 57.4387 107.878 57.1493 107.43 56.888C107.001 56.608 106.329 56.2347 105.414 55.768C104.294 55.208 103.379 54.6853 102.67 54.2C101.961 53.7147 101.354 53.0893 100.85 52.324C100.346 51.5587 100.094 50.6347 100.094 49.552C100.094 48.4693 100.346 47.5267 100.85 46.724C101.373 45.9027 102.101 45.2773 103.034 44.848C103.967 44.4 105.031 44.176 106.226 44.176C107.477 44.176 108.587 44.4187 109.558 44.904C110.529 45.3707 111.285 46.0333 111.826 46.892C112.367 47.7507 112.638 48.74 112.638 49.86V50.42C112.638 50.5133 112.601 50.5973 112.526 50.672C112.47 50.728 112.395 50.756 112.302 50.756H109.082C108.989 50.756 108.905 50.728 108.83 50.672C108.774 50.5973 108.746 50.5133 108.746 50.42V49.916C108.746 49.244 108.513 48.684 108.046 48.236C107.579 47.788 106.945 47.564 106.142 47.564C105.47 47.564 104.938 47.7413 104.546 48.096C104.173 48.432 103.986 48.908 103.986 49.524C103.986 49.9533 104.098 50.3267 104.322 50.644C104.546 50.9613 104.891 51.2693 105.358 51.568C105.825 51.848 106.534 52.2213 107.486 52.688L108.074 53.024C109.157 53.6213 109.997 54.144 110.594 54.592C111.21 55.0213 111.723 55.572 112.134 56.244C112.545 56.916 112.75 57.728 112.75 58.68C112.75 60.3787 112.171 61.732 111.014 62.74C109.875 63.7293 108.354 64.224 106.45 64.224ZM4.82 86C4.72667 86 4.64267 85.972 4.568 85.916C4.512 85.8413 4.484 85.7573 4.484 85.664V66.736C4.484 66.6427 4.512 66.568 4.568 66.512C4.64267 66.4373 4.72667 66.4 4.82 66.4H8.096C8.18933 66.4 8.264 66.4373 8.32 66.512C8.39467 66.568 8.432 66.6427 8.432 66.736V82.472C8.432 82.5653 8.47867 82.612 8.572 82.612H16.076C16.1693 82.612 16.244 82.6493 16.3 82.724C16.3747 82.78 16.412 82.8547 16.412 82.948V85.664C16.412 85.7573 16.3747 85.8413 16.3 85.916C16.244 85.972 16.1693 86 16.076 86H4.82ZM18.7927 86C18.6993 86 18.6153 85.972 18.5407 85.916C18.4847 85.8413 18.4567 85.7573 18.4567 85.664V66.736C18.4567 66.6427 18.4847 66.568 18.5407 66.512C18.6153 66.4373 18.6993 66.4 18.7927 66.4H22.0687C22.162 66.4 22.2367 66.4373 22.2927 66.512C22.3673 66.568 22.4047 66.6427 22.4047 66.736V85.664C22.4047 85.7573 22.3673 85.8413 22.2927 85.916C22.2367 85.972 22.162 86 22.0687 86H18.7927ZM24.9273 86C24.8339 86 24.7499 85.972 24.6753 85.916C24.6193 85.8413 24.5913 85.7573 24.5913 85.664V82.724C24.5913 82.5747 24.6286 82.4347 24.7033 82.304L32.2073 69.956C32.2633 69.844 32.2353 69.788 32.1233 69.788H24.9273C24.8339 69.788 24.7499 69.76 24.6753 69.704C24.6193 69.6293 24.5913 69.5453 24.5913 69.452V66.736C24.5913 66.6427 24.6193 66.568 24.6753 66.512C24.7499 66.4373 24.8339 66.4 24.9273 66.4H36.2393C36.3326 66.4 36.4073 66.4373 36.4633 66.512C36.5379 66.568 36.5753 66.6427 36.5753 66.736V69.676C36.5753 69.8253 36.5379 69.9653 36.4633 70.096L28.9593 82.444C28.9033 82.556 28.9313 82.612 29.0433 82.612H36.2393C36.3326 82.612 36.4073 82.6493 36.4633 82.724C36.5379 82.78 36.5753 82.8547 36.5753 82.948V85.664C36.5753 85.7573 36.5379 85.8413 36.4633 85.916C36.4073 85.972 36.3326 86 36.2393 86H24.9273ZM49.2971 86C49.0918 86 48.9611 85.9067 48.9051 85.72L48.2611 82.976C48.2425 82.9013 48.1958 82.864 48.1211 82.864H42.8851C42.8105 82.864 42.7638 82.9013 42.7451 82.976L42.1011 85.72C42.0451 85.9067 41.9238 86 41.7371 86H38.3491C38.1065 86 38.0131 85.8787 38.0691 85.636L43.1091 66.68C43.1651 66.4933 43.2958 66.4 43.5011 66.4H47.5611C47.7665 66.4 47.8971 66.4933 47.9531 66.68L52.9931 85.636L53.0211 85.748C53.0211 85.916 52.9185 86 52.7131 86H49.2971ZM43.5011 79.644C43.4825 79.7 43.4918 79.7467 43.5291 79.784C43.5665 79.8027 43.6038 79.812 43.6411 79.812H47.3371C47.3745 79.812 47.4118 79.8027 47.4491 79.784C47.4865 79.7467 47.4958 79.7 47.4771 79.644L45.5451 71.524C45.5265 71.4493 45.4985 71.412 45.4611 71.412C45.4238 71.412 45.3958 71.4493 45.3771 71.524L43.5011 79.644ZM64.3093 86C64.1039 86 63.9733 85.9067 63.9173 85.72L61.0893 77.992C61.0519 77.9173 61.0053 77.88 60.9493 77.88H59.1853C59.0919 77.88 59.0453 77.9267 59.0453 78.02V85.664C59.0453 85.7573 59.0079 85.8413 58.9333 85.916C58.8773 85.972 58.8026 86 58.7093 86H55.4333C55.3399 86 55.2559 85.972 55.1813 85.916C55.1253 85.8413 55.0973 85.7573 55.0973 85.664V66.736C55.0973 66.6427 55.1253 66.568 55.1813 66.512C55.2559 66.4373 55.3399 66.4 55.4333 66.4H62.2653C63.3666 66.4 64.3466 66.652 65.2053 67.156C66.0639 67.6413 66.7266 68.332 67.1933 69.228C67.6599 70.124 67.8933 71.1507 67.8933 72.308C67.8933 73.5027 67.6319 74.5387 67.1093 75.416C66.5866 76.2933 65.8493 76.9467 64.8973 77.376C64.8039 77.4133 64.7759 77.4787 64.8133 77.572L68.0053 85.608C68.0239 85.6453 68.0333 85.692 68.0333 85.748C68.0333 85.916 67.9306 86 67.7253 86H64.3093ZM59.1853 69.788C59.0919 69.788 59.0453 69.8347 59.0453 69.928V74.716C59.0453 74.8093 59.0919 74.856 59.1853 74.856H61.6213C62.3119 74.856 62.8719 74.632 63.3013 74.184C63.7306 73.7173 63.9453 73.1013 63.9453 72.336C63.9453 71.552 63.7306 70.936 63.3013 70.488C62.8719 70.0213 62.3119 69.788 61.6213 69.788H59.1853ZM70.6364 86C70.5431 86 70.4591 85.972 70.3844 85.916C70.3284 85.8413 70.3004 85.7573 70.3004 85.664V66.736C70.3004 66.6427 70.3284 66.568 70.3844 66.512C70.4591 66.4373 70.5431 66.4 70.6364 66.4H76.6564C77.9071 66.4 79.0084 66.6333 79.9604 67.1C80.9311 67.5667 81.6777 68.2293 82.2004 69.088C82.7231 69.9467 82.9844 70.9453 82.9844 72.084V80.316C82.9844 81.4547 82.7231 82.4533 82.2004 83.312C81.6777 84.1707 80.9311 84.8333 79.9604 85.3C79.0084 85.7667 77.9071 86 76.6564 86H70.6364ZM74.2484 82.472C74.2484 82.5653 74.2951 82.612 74.3884 82.612L76.6844 82.584C77.3751 82.584 77.9351 82.3413 78.3644 81.856C78.7937 81.352 79.0177 80.6893 79.0364 79.868V72.532C79.0364 71.692 78.8217 71.0293 78.3924 70.544C77.9631 70.04 77.3937 69.788 76.6844 69.788H74.3884C74.2951 69.788 74.2484 69.8347 74.2484 69.928V82.472ZM10.364 108.224C9.076 108.224 7.94667 108 6.976 107.552C6.00533 107.085 5.24933 106.441 4.708 105.62C4.18533 104.78 3.924 103.819 3.924 102.736V102.008C3.924 101.915 3.952 101.84 4.008 101.784C4.08267 101.709 4.16667 101.672 4.26 101.672H7.48C7.57333 101.672 7.648 101.709 7.704 101.784C7.77867 101.84 7.816 101.915 7.816 102.008V102.54C7.816 103.193 8.05867 103.744 8.544 104.192C9.02933 104.621 9.68267 104.836 10.504 104.836C11.232 104.836 11.7827 104.649 12.156 104.276C12.548 103.903 12.744 103.427 12.744 102.848C12.744 102.419 12.6227 102.055 12.38 101.756C12.1373 101.439 11.792 101.149 11.344 100.888C10.9147 100.608 10.2427 100.235 9.328 99.768C8.208 99.208 7.29333 98.6853 6.584 98.2C5.87467 97.7147 5.268 97.0893 4.764 96.324C4.26 95.5587 4.008 94.6347 4.008 93.552C4.008 92.4693 4.26 91.5267 4.764 90.724C5.28667 89.9027 6.01467 89.2773 6.948 88.848C7.88133 88.4 8.94533 88.176 10.14 88.176C11.3907 88.176 12.5013 88.4187 13.472 88.904C14.4427 89.3707 15.1987 90.0333 15.74 90.892C16.2813 91.7507 16.552 92.74 16.552 93.86V94.42C16.552 94.5133 16.5147 94.5973 16.44 94.672C16.384 94.728 16.3093 94.756 16.216 94.756H12.996C12.9027 94.756 12.8187 94.728 12.744 94.672C12.688 94.5973 12.66 94.5133 12.66 94.42V93.916C12.66 93.244 12.4267 92.684 11.96 92.236C11.4933 91.788 10.8587 91.564 10.056 91.564C9.384 91.564 8.852 91.7413 8.46 92.096C8.08667 92.432 7.9 92.908 7.9 93.524C7.9 93.9533 8.012 94.3267 8.236 94.644C8.46 94.9613 8.80533 95.2693 9.272 95.568C9.73867 95.848 10.448 96.2213 11.4 96.688L11.988 97.024C13.0707 97.6213 13.9107 98.144 14.508 98.592C15.124 99.0213 15.6373 99.572 16.048 100.244C16.4587 100.916 16.664 101.728 16.664 102.68C16.664 104.379 16.0853 105.732 14.928 106.74C13.7893 107.729 12.268 108.224 10.364 108.224ZM26.0315 88.372C27.1515 88.372 28.1409 88.624 28.9995 89.128C29.8769 89.632 30.5489 90.3413 31.0155 91.256C31.5009 92.1707 31.7435 93.216 31.7435 94.392C31.7435 95.5493 31.5009 96.576 31.0155 97.472C30.5489 98.3493 29.8769 99.0307 28.9995 99.516C28.1409 100.001 27.1515 100.244 26.0315 100.244H23.0075C22.9142 100.244 22.8675 100.291 22.8675 100.384V107.664C22.8675 107.757 22.8302 107.841 22.7555 107.916C22.6995 107.972 22.6249 108 22.5315 108H19.2555C19.1622 108 19.0782 107.972 19.0035 107.916C18.9475 107.841 18.9195 107.757 18.9195 107.664V88.708C18.9195 88.6147 18.9475 88.54 19.0035 88.484C19.0782 88.4093 19.1622 88.372 19.2555 88.372H26.0315ZM25.3875 97.108C26.1155 97.108 26.6942 96.8747 27.1235 96.408C27.5715 95.9227 27.7955 95.2787 27.7955 94.476C27.7955 93.6547 27.5715 93.0013 27.1235 92.516C26.6942 92.0307 26.1155 91.788 25.3875 91.788H23.0075C22.9142 91.788 22.8675 91.8347 22.8675 91.928V96.968C22.8675 97.0613 22.9142 97.108 23.0075 97.108H25.3875ZM40.0385 108.252C38.7505 108.252 37.6119 107.991 36.6225 107.468C35.6519 106.945 34.8959 106.208 34.3545 105.256C33.8132 104.304 33.5425 103.193 33.5425 101.924V94.476C33.5425 93.2253 33.8132 92.124 34.3545 91.172C34.8959 90.22 35.6519 89.4827 36.6225 88.96C37.6119 88.4373 38.7505 88.176 40.0385 88.176C41.3265 88.176 42.4652 88.4373 43.4545 88.96C44.4439 89.4827 45.2092 90.22 45.7505 91.172C46.2919 92.124 46.5625 93.2253 46.5625 94.476V101.924C46.5625 103.193 46.2919 104.304 45.7505 105.256C45.2092 106.208 44.4439 106.945 43.4545 107.468C42.4652 107.991 41.3265 108.252 40.0385 108.252ZM40.0385 104.864C40.8225 104.864 41.4479 104.612 41.9145 104.108C42.3812 103.585 42.6145 102.913 42.6145 102.092V94.364C42.6145 93.524 42.3812 92.852 41.9145 92.348C41.4479 91.8253 40.8225 91.564 40.0385 91.564C39.2732 91.564 38.6572 91.8253 38.1905 92.348C37.7239 92.852 37.4905 93.524 37.4905 94.364V102.092C37.4905 102.913 37.7239 103.585 38.1905 104.108C38.6572 104.612 39.2732 104.864 40.0385 104.864ZM55.267 108.224C53.9977 108.224 52.8777 107.972 51.907 107.468C50.9364 106.964 50.1804 106.245 49.639 105.312C49.1164 104.379 48.855 103.296 48.855 102.064V94.28C48.855 93.0667 49.1164 92.0027 49.639 91.088C50.1804 90.1547 50.9364 89.436 51.907 88.932C52.8777 88.428 53.9977 88.176 55.267 88.176C56.5364 88.176 57.6564 88.428 58.627 88.932C59.5977 89.4173 60.3444 90.108 60.867 91.004C61.4084 91.9 61.679 92.9453 61.679 94.14V94.28C61.679 94.3733 61.6417 94.4573 61.567 94.532C61.511 94.6067 61.4364 94.644 61.343 94.644L58.067 94.784C57.843 94.784 57.731 94.6813 57.731 94.476V94.112C57.731 93.3467 57.507 92.7307 57.059 92.264C56.611 91.7973 56.0137 91.564 55.267 91.564C54.5204 91.564 53.923 91.7973 53.475 92.264C53.027 92.7307 52.803 93.3467 52.803 94.112V102.316C52.803 103.081 53.027 103.697 53.475 104.164C53.923 104.612 54.5204 104.836 55.267 104.836C56.0137 104.836 56.611 104.612 57.059 104.164C57.507 103.697 57.731 103.081 57.731 102.316V101.952C57.731 101.747 57.843 101.644 58.067 101.644L61.343 101.784C61.4364 101.784 61.511 101.821 61.567 101.896C61.6417 101.952 61.679 102.027 61.679 102.12V102.204C61.679 103.399 61.4084 104.453 60.867 105.368C60.3444 106.283 59.5977 106.992 58.627 107.496C57.6564 107.981 56.5364 108.224 55.267 108.224ZM64.5388 108C64.4454 108 64.3614 107.972 64.2868 107.916C64.2308 107.841 64.2028 107.757 64.2028 107.664V88.736C64.2028 88.6427 64.2308 88.568 64.2868 88.512C64.3614 88.4373 64.4454 88.4 64.5388 88.4H67.8148C67.9081 88.4 67.9828 88.4373 68.0388 88.512C68.1134 88.568 68.1508 88.6427 68.1508 88.736V96.184C68.1508 96.24 68.1694 96.2773 68.2068 96.296C68.2628 96.3147 68.3001 96.296 68.3188 96.24L73.3308 88.624C73.4241 88.4747 73.5548 88.4 73.7228 88.4H77.3348C77.4654 88.4 77.5494 88.4373 77.5868 88.512C77.6428 88.5867 77.6334 88.68 77.5588 88.792L72.3788 96.828C72.3601 96.884 72.3601 96.9493 72.3788 97.024L77.8668 107.608C77.9041 107.683 77.9228 107.739 77.9228 107.776C77.9228 107.925 77.8201 108 77.6148 108H74.0308C73.8628 108 73.7321 107.916 73.6388 107.748L69.6628 100.076C69.6441 100.02 69.6161 99.992 69.5788 99.992C69.5414 99.992 69.5041 100.02 69.4668 100.076L68.2068 101.896C68.1694 101.971 68.1508 102.027 68.1508 102.064V107.664C68.1508 107.757 68.1134 107.841 68.0388 107.916C67.9828 107.972 67.9081 108 67.8148 108H64.5388Z" fill="white"/>
</g>
<defs>
<filter id="filter0_d_0_995" x="0.92395" y="0.175781" width="114.826" height="114.076" filterUnits="userSpaceOnUse" color-interpolation-filters="sRGB">
<feFlood flood-opacity="0" result="BackgroundImageFix"/>
<feColorMatrix in="SourceAlpha" type="matrix" values="0 0 0 0 0 0 0 0 0 0 0 0 0 0 0 0 0 0 127 0" result="hardAlpha"/>
<feOffset dy="3"/>
<feGaussianBlur stdDeviation="1.5"/>
<feColorMatrix type="matrix" values="0 0 0 0 0 0 0 0 0 0 0 0 0 0 0 0 0 0 0.196706 0"/>
<feBlend mode="normal" in2="BackgroundImageFix" result="effect1_dropShadow_0_995"/>
<feBlend mode="normal" in="SourceGraphic" in2="effect1_dropShadow_0_995" result="shape"/>
</filter>
</defs>
</svg>
